<?xml version="1.0"?>
<svg width="640" height="480" xmlns="http://www.w3.org/2000/svg" xmlns:svg="http://www.w3.org/2000/svg">
 <!-- Created with SVG-edit - https://github.com/SVG-Edit/svgedit-->
 <g class="layer">
  <title>Layer 1</title>
  <path d="m216.35,224.36c0.47,-0.53 0.83,-1.21 1.08,-1.77c0.29,-0.66 0.68,-1.36 1.03,-1.82c0.38,-0.49 0.87,-0.97 1.15,-1.21c0.91,-0.81 1.28,-1.07 1.66,-1.34c0.79,-0.57 1.21,-0.85 1.63,-1.11c0.42,-0.26 1.7,-0.94 2.12,-1.12c0.41,-0.17 1.21,-0.44 1.62,-0.53c0.8,-0.19 1.2,-0.25 2.45,-0.36c0.43,-0.04 1.3,-0.07 1.74,-0.08c0.44,-0.01 1.31,-0.02 2.16,-0.02c0.83,0 1.23,0 2.05,0c0.41,0 1.26,0 2.14,0c0.46,0 1.43,0 1.93,0c0.5,0 1.01,0 1.52,0c1.51,0 2,0 2.49,0c0.48,0 1.41,0 1.86,0c0.45,0 1.74,0 2.15,0c0.81,0 1.2,0 1.96,0.03c0.73,0.03 1.77,0.14 2.1,0.19c0.64,0.11 1.25,0.24 1.83,0.4c1.07,0.29 1.56,0.46 2.23,0.7c0.61,0.22 1.32,0.52 1.75,0.78c0.71,0.43 1.09,0.91 1.25,1.67c0.12,0.59 0.28,1.38 0.56,2c0.29,0.63 0.66,1.21 0.86,1.9c0.18,0.6 0.13,1.42 0.13,1.96c0,0.78 -0.37,1.54 -0.76,1.12c-0.47,-0.51 -0.63,-1.12 -0.75,-1.86c-0.12,-0.69 0.26,-1.34 0.67,-1.78c0.57,-0.61 0.98,-1.04 1.61,-1.52c0.44,-0.34 0.93,-0.61 1.65,-0.91c0.6,-0.25 1.28,-0.46 1.77,-0.56c0.78,-0.16 1.64,-0.2 2.23,-0.21c0.6,-0.01 1.52,-0.01 2.13,-0.01c0.61,0 1.22,0 2.13,0c0.61,0 1.23,0 1.86,0.03c0.32,0.01 1.32,0.09 2.02,0.2c0.71,0.11 1.07,0.17 1.76,0.37c0.98,0.28 1.56,0.55 2.09,0.84c0.5,0.28 0.97,0.6 1.66,1.06c0.69,0.47 1.14,0.78 1.6,1.09c0.69,0.47 1.37,0.93 1.77,1.28c0.39,0.34 1,1.12 1.23,1.55c0.33,0.63 0.73,1.46 1.13,1.98c0.26,0.34 0.91,1.1 1.16,1.59c0.32,0.6 0.47,1.4 0.49,1.98c0.03,0.8 0.02,1.45 0,2.2c-0.01,0.64 -0.71,0.64 -0.22,0.93c0.5,0.3 1.09,0.86 1.35,1.29c0.44,0.74 0.74,1.36 0.94,1.95c0.26,0.73 0.22,1.39 0.22,2.09c0,0.7 -0.04,1.51 -0.52,1.84c-0.58,0.4 -1.22,0.31 -1.89,0.38c-0.76,0.08 -1.31,0.18 -2.18,0.35c-0.6,0.12 -0.9,0.19 -1.81,0.3c-0.61,0.07 -1.22,0.09 -1.83,0.14c-0.92,0.08 -1.52,0.18 -2.13,0.29c-0.88,0.17 -1.71,0.33 -2.23,0.38c-0.72,0.07 -1.16,0.06 -2.13,0.07c-0.49,0 -1.27,0.03 -1.89,0c-0.7,-0.03 -0.79,-1.17 -0.28,-0.78c0.41,0.31 0.13,1.29 0.13,1.83c0,0.8 0.05,1.55 -0.03,2.1c-0.14,0.9 -0.38,1.3 -0.78,1.92c-0.29,0.44 -0.82,1.06 -1.44,1.59c-0.42,0.36 -0.87,0.67 -1.56,1.14c-0.69,0.47 -1.15,0.78 -1.64,1.05c-0.76,0.41 -1.31,0.61 -1.9,0.8c-0.61,0.19 -1.25,0.35 -2.27,0.57c-0.35,0.08 -1.07,0.23 -1.79,0.36c-0.36,0.06 -1.42,0.22 -2.09,0.27c-0.65,0.05 -1.28,0.06 -1.89,0.07c-0.92,0.01 -1.52,0.01 -2.12,-0.02c-0.58,-0.02 -1.42,-0.1 -1.93,-0.21c-0.74,-0.16 -1.21,-0.32 -2.12,-0.64c-0.45,-0.16 -1.14,-0.37 -1.93,-0.83c-0.38,-0.22 -0.87,-0.64 -1.52,-1.3c-0.41,-0.42 -0.91,-1.03 -1.19,-1.55c-0.27,-0.53 -0.46,-1.29 -0.47,-2.01c-0.01,-0.7 0,-1.03 0,-0.31c0,0.7 -0.14,1.26 -0.68,1.65c-0.62,0.46 -1.18,0.7 -1.77,1c-0.6,0.31 -1.21,0.63 -1.83,0.93c-0.63,0.3 -0.94,0.46 -1.95,0.81c-0.69,0.24 -1.06,0.33 -1.81,0.5c-0.38,0.09 -1.18,0.25 -2,0.41c-0.85,0.16 -1.29,0.24 -2.17,0.37c-0.45,0.07 -0.9,0.15 -2.27,0.28c-0.46,0.04 -0.91,0.07 -1.82,0.1c-0.45,0.02 -0.9,0.02 -1.77,0.03c-0.85,0 -1.68,0 -2.08,0c-0.78,-0.01 -1.16,-0.01 -1.89,-0.06c-1.04,-0.08 -1.7,-0.2 -2.32,-0.34c-0.6,-0.13 -1.43,-0.37 -1.95,-0.53c-0.48,-0.16 -1.18,-0.34 -1.79,-0.87c-0.52,-0.46 -0.9,-1.16 -1.24,-1.68c-0.39,-0.62 -0.71,-1.17 -1.03,-1.84c-0.26,-0.53 0.46,-0.96 0.42,-0.69c-0.08,0.57 -1.19,0.52 -1.83,0.62c-0.77,0.13 -1.2,0.28 -1.93,0.48c-0.85,0.24 -1.49,0.39 -1.83,0.46c-0.71,0.15 -1.44,0.28 -1.82,0.33c-1.14,0.15 -1.52,0.17 -2.28,0.19c-0.74,0.03 -1.11,0.03 -2.17,0.03c-0.67,0 -1.33,0 -1.98,0c-0.65,0 -1.33,0 -2.02,0c-0.7,0 -1.39,0 -2.03,0c-0.83,0 -1.5,0.06 -2.01,-0.09c-0.81,-0.24 -1.22,-0.7 -1.62,-1.09c-0.56,-0.56 -1.04,-1.28 -1.1,-1.81c-0.07,-0.59 -0.03,-1.38 -0.03,-2c0,-0.78 -0.06,-1.52 0,-2.22c0.06,-0.73 0.28,-1.46 0.76,-1.89c0.49,-0.43 1.25,-0.57 1.83,-0.76c0.75,-0.25 1.37,-0.27 2.13,-0.28c0.59,0 1.27,-0.18 1.92,0c0.61,0.17 0.76,0.78 0.14,0.78c-0.69,0 -1.33,-0.1 -1.76,-0.68c-0.29,-0.4 -0.82,-1.19 -1.21,-1.66c-0.39,-0.47 -0.86,-1.08 -1.13,-1.56c-0.42,-0.77 -0.73,-1.38 -0.94,-1.96c-0.24,-0.66 -0.22,-1.41 -0.22,-2.07c0,-0.73 0.01,-1.43 0.47,-1.9c0.44,-0.46 1.05,-1.02 1.67,-1.08c0.68,-0.07 1.37,0 2.06,0c0.68,0 0.77,0.61 1.14,0.61c0.67,0 -0.01,-1.39 0,-2.01c0.01,-0.65 0.18,-1.33 0.54,-1.99c0.34,-0.62 0.81,-1.17 1.44,-1.28c0.69,-0.12 1.44,-0.01 1.96,-0.01c0.81,0 1.47,0 2.15,0c0.7,0 0.83,0.86 1.52,0.75c0.58,-0.09 0.05,-1.25 0.61,-1.6c0.54,-0.33 1.01,-0.97 1.59,-1.27c0.54,-0.28 1.26,-0.24 1.89,-0.55c0.66,-0.33 1.32,-0.45 2.01,-0.45c0.61,0 1.31,0 1.52,0.5l-3.73,1.55" fill="#a4eae8" id="svg_4" stroke="#000000" stroke-width="5"/>
 </g>
</svg>