<?xml version="1.0"?>
<svg width="640" height="480" xmlns="http://www.w3.org/2000/svg" xmlns:svg="http://www.w3.org/2000/svg">
 <!-- Created with SVG-edit - https://github.com/SVG-Edit/svgedit-->
 <g class="layer">
  <title>Layer 1</title>
  <polyline fill="none" id="svg_4" points="159.5 281 161.147 281.057 161.5 281.833" stroke="#000000" stroke-linecap="round" stroke-width="5"/>
  <path d="m187.5,282c1.65,0.06 1.96,0.77 2.5,1.48c0.62,0.83 1.33,1.35 0.93,1.48l-0.42,-0.68" fill="none" id="svg_5" stroke="#000000" stroke-width="5"/>
  <path d="m164.5,298c0.5,0.54 0.76,1.53 1.05,2.29c0.3,0.77 0.8,1.44 1.38,2.1c0.62,0.69 1.69,0.8 2.28,1.33c0.67,0.6 1.52,0.97 2.2,1.57c0.6,0.53 1.23,1.11 1.97,1.43c0.89,0.39 1.67,0.29 2.57,0.78c0.8,0.44 1.83,-0.05 2.52,0.5c0.67,0.53 1.02,1 1.94,1c0.8,0 0.98,-0.72 1.51,-1.43c0.53,-0.71 1.19,-1.15 2.05,-1.55l0.52,-0.45" fill="none" id="svg_6" stroke="#000000" stroke-width="5"/>
  <path d="m170.5,258c-0.89,0 -1.85,0 -2.69,0c-1,0 -1.83,0 -2.42,0c-1.2,0 -2.1,0 -2.7,0c-1.2,0 -2.1,0 -2.68,0c-0.84,0 -2.06,0 -2.86,0c-1.03,0 -1.92,-0.16 -2.76,0.22c-0.67,0.31 -1.58,0.43 -2.38,0.8c-0.73,0.33 -0.95,1.39 -1.62,2.08c-0.49,0.51 -1.14,1.28 -2,1.78c-0.74,0.42 -0.85,1.18 -0.9,2.12c-0.04,0.8 -0.62,1.48 -0.88,2.32c-0.28,0.89 -0.28,1.85 -0.47,2.63c-0.21,0.83 -0.51,1.88 -0.59,2.59c-0.1,0.9 -0.06,1.87 -0.06,2.68c0,0.82 0,1.85 0,2.55c0,0.91 0,1.91 0,2.73c0,0.82 0,1.81 0,2.69c0,1.01 0,1.81 0,2.81c0,0.8 -0.03,1.6 0,2.6c0.03,0.75 0.48,1.59 0.83,2.57c0.23,0.64 0.2,1.45 0.52,2.43c0.25,0.76 0.57,1.79 0.81,2.57c0.27,0.85 0.75,1.66 0.83,2.53c0.09,0.9 -0.11,1.87 0.36,2.6c0.52,0.81 1.27,1.2 1.56,2.19c0.2,0.67 0.33,1.66 0.89,2.31c0.63,0.74 1.01,1.56 1.42,2.3c0.37,0.67 1.18,1.3 1.88,2c0.5,0.5 1.21,1.19 1.9,1.9c0.48,0.49 0.79,1.45 1.44,1.97c0.73,0.59 1.57,0.84 2.32,1.08c0.9,0.28 1.58,0.62 2.62,0.92c0.94,0.27 1.6,0.61 2.46,0.86c0.9,0.26 1.82,0.17 2.57,0.17c1,0 1.8,0 2.8,0c0.8,0 1.8,0 2.6,0c0.8,0 1.8,0 2.54,0c1.03,0 1.98,0 2.83,0c0.94,0 1.84,0.09 2.58,-0.06c0.93,-0.19 1.65,-0.65 2.44,-1.04c0.78,-0.38 1.79,-0.74 2.55,-0.95c0.91,-0.26 1.63,-0.6 2.36,-1.15c0.73,-0.55 1.26,-1.25 2.05,-1.8c0.63,-0.44 1.39,-0.74 2.2,-1.4c0.78,-0.65 1.24,-1.2 1.94,-1.9c0.7,-0.7 1.23,-1.17 1.9,-1.9c0.54,-0.58 0.77,-1.56 1.24,-2.2c0.57,-0.78 1.33,-1.24 1.95,-2c0.55,-0.66 0.59,-1.6 0.61,-2.4c0.03,-0.9 0.69,-1.62 0.94,-2.5c0.25,-0.87 0.06,-1.59 0.06,-2.54c0,-0.77 0,-1.76 0,-2.56c0,-1 0.03,-1.98 -0.35,-2.85c-0.3,-0.67 -0.61,-1.58 -0.65,-2.59c-0.03,-0.76 -0.54,-1.53 -0.83,-2.33c-0.29,-0.8 -0.43,-1.79 -0.74,-2.46c-0.39,-0.84 -0.32,-1.79 -0.78,-2.62c-0.49,-0.86 -1.19,-1.22 -1.59,-2.06c-0.41,-0.87 -0.7,-1.53 -1.11,-2.4c-0.39,-0.83 -0.76,-1.66 -1.17,-2.4c-0.37,-0.67 -1.23,-1.27 -1.78,-2.07c-0.44,-0.63 -0.74,-1.39 -1.4,-2.2c-0.55,-0.68 -1.2,-1.24 -1.9,-1.94c-0.5,-0.5 -1.2,-1.24 -2.02,-1.8c-0.66,-0.45 -1.25,-0.73 -1.92,-1.55c-0.5,-0.61 -1.36,-1.16 -2.05,-1.71c-0.74,-0.59 -0.98,-1.41 -1.7,-1.81c-0.77,-0.43 -1.18,-1.34 -2.1,-1.71c-0.79,-0.32 -1.34,-0.83 -2.3,-1.09c-0.87,-0.23 -1.96,0.22 -2.51,-0.32c-0.56,-0.54 -1.25,-0.72 -2.11,-0.72l-0.89,0l-0.09,0.72" fill="none" id="svg_7" stroke="#000000" stroke-width="5"/>
  <path d="m173.5,342c0,-1 0,-1.8 0,-2.76c0,-0.9 0,-1.59 0,-2.62c0,-0.95 0,-1.84 0,-2.83c0,-0.8 0,-1.8 0,-2.61c0,-0.65 0.02,-1.61 -0.01,-2.4c-0.04,-1.02 -0.48,-1.9 -0.82,-2.79c-0.28,-0.72 -0.16,-1.65 -0.17,-2.52c-0.01,-0.96 -0.44,-1.74 -0.72,-2.37c-0.38,-0.88 0.53,-2.76 -0.28,-2.76c-0.22,0 0,1.08 0,1.95c0,0.9 0,1.87 0,2.72c0,0.98 0,1.78 0,2.58c0,1 0,1.8 0,2.8c0,0.62 0,1.77 0,2.55c0,0.82 0,1.88 0,2.59c0,0.85 0,1.86 0,2.62c0,1.08 0,2 0,2.84c0,0.98 0,1.7 0,2.6c0,0.9 0,1.8 0,2.7c0,0.9 0,1.8 0,2.7c0,0.8 0,1.83 0,2.65c0,0.93 0,1.79 0,2.65c0,0.87 0,1.73 0,2.68c0,0.82 0,1.72 0,2.66c0,0.93 -0.44,1.36 -1.3,1.36c-0.9,0 -1.8,-0.05 -2.7,0c-0.8,0.04 -1.56,0.65 -2.2,1.2c-0.65,0.56 -1.66,0.7 -2.4,0.97c-0.84,0.31 -1.38,0.85 -2.23,1.66c-0.55,0.53 -1.33,1.17 -1.99,1.57c-0.69,0.41 -1.55,0.99 -2.17,1.6c-0.61,0.59 -1.23,1.4 -2,1.83c-0.78,0.44 -1.65,1.77 -1.94,1.11c-0.35,-0.8 1.48,-0.9 2.26,-1.16c0.76,-0.26 1.44,-0.6 2.65,-0.98c0.7,-0.22 1.46,-0.42 2.23,-0.68c1.21,-0.41 1.6,-0.59 2.4,-0.95c0.8,-0.36 1.6,-0.76 2.8,-1.36c0.4,-0.2 1.2,-0.6 1.96,-1.04c0.76,-0.44 1.82,-1.17 2.47,-1.71c0.63,-0.52 1.18,-1.07 1.99,-1.72c0.69,-0.54 1.35,-0.92 2.37,-1.43c0.59,-0.3 1.31,-1.16 2.35,-0.89c0.6,0.15 0.36,1.45 0.78,2.16c0.44,0.74 1.12,1.26 1.83,1.83c0.77,0.62 1.36,1.01 1.94,1.46c0.91,0.7 1.5,1.22 2.08,1.76c0.58,0.52 1.63,1.47 2.12,1.81c0.82,0.58 1.69,1.04 2.28,1.57c0.64,0.57 1.29,1.28 1.91,1.9c0.67,0.67 1.6,2.27 2.07,1.5c0.01,-0.01 -0.88,-0.35 -1.57,-1c-0.53,-0.49 -1.31,-1.11 -2.02,-1.5c-0.57,-0.31 -1.56,-0.85 -2.38,-1.14c-0.98,-0.34 -1.83,-0.22 -2.71,-0.64c-0.65,-0.31 -1.21,-1.23 -1.99,-1.59c-0.74,-0.34 -1.75,-0.52 -2.42,-0.92c-0.88,-0.54 -1.71,-0.87 -2.36,-1.42c-0.66,-0.56 -1.61,-0.34 -2.12,-0.95c-0.54,-0.64 -0.94,-1.05 -1,-1.89c-0.07,-0.92 0,-1.7 0,-2.6c0,-0.75 0,-1.74 0,-2.54c0,-1 0,-1.8 0,-2.8c0,-0.79 0,-1.83 0,-2.7c0,-0.9 0,-1.83 0,-2.63c0,-0.85 0.18,-1.85 -0.17,-2.68c-0.33,-0.78 -0.52,-1.63 -0.84,-2.43c-0.31,-0.76 -0.98,-1.22 -0.99,-2.23c0,-0.69 -0.01,-1.7 -0.5,-2.35c-0.49,-0.65 -1.07,-1 -1.95,-1c-0.87,0 -1.76,0 -2.75,0c-0.82,0 -1.49,0 -2.48,0c-0.82,0 -1.63,0 -2.63,0c-0.91,0 -1.85,0 -2.64,0c-0.85,0 -2.04,0 -2.64,0c-0.9,0 -1.8,0 -2.7,0c-0.9,0 -1.8,0 -2.7,0c-0.9,0 -1.8,0 -2.4,0c-1.2,0 -2.08,0 -2.91,0c-1,0 -1.87,0.01 -2.89,0c-0.8,-0.01 -1.81,-0.14 -2.4,-0.36c-0.82,-0.31 -1.81,-0.82 -2.38,-1.14c-1.02,-0.57 -1.59,-1.12 -2.22,-1.7c-0.58,-0.54 -1.37,-0.95 -1.8,-1.72c-0.38,-0.68 -0.89,-1.49 -1,-2.28c-0.13,-0.92 -0.73,-1.5 -1.42,-2.23c-0.59,-0.62 -0.56,-1.66 0.19,-1.52c0.93,0.18 1.5,0.57 2.4,1.11c0.8,0.47 1.33,0.84 2.15,1.35c0.99,0.61 1.66,0.97 2.28,1.28c1,0.51 1.6,0.81 2.6,1.3c0.78,0.38 1.67,0.63 2.5,0.95c0.75,0.29 1.33,1.15 2,1.59c0.73,0.48 1.54,0.85 2.47,1.19c0.82,0.3 1.85,0.3 2.43,0.52c0.77,0.3 1.59,1.04 2.29,1.36c0.89,0.4 1.95,0.45 2.6,0.79c0.82,0.44 1.72,0.42 2.62,0.5c0.91,0.08 1.55,0.8 2.4,0.98c0.88,0.19 1.8,0.02 2.7,0.02c0.9,0 1.8,0 2.56,0c0.9,0 1.67,0.02 2.64,-0.29c0.82,-0.26 1.79,-0.83 2.4,-1.1c0.79,-0.35 1.81,-0.49 2.54,-0.66c0.92,-0.22 1.79,-0.73 2.46,-1.03c0.83,-0.38 1.56,-0.92 2.4,-0.92c0.97,0 1.67,0.01 2.37,-0.06c1.29,-0.12 2.1,-0.3 2.53,-0.38c0.92,-0.17 1.9,-0.37 2.89,-0.56c1,-0.2 1.5,-0.3 2.5,-0.5c1,-0.2 1.5,-0.3 3,-0.6c0.5,-0.1 1.5,-0.31 2,-0.42c1,-0.23 1.51,-0.34 3,-0.8c1.01,-0.31 1.5,-0.51 2.5,-0.85c0.5,-0.17 2,-0.66 2.5,-0.8c0.99,-0.28 1.49,-0.39 2.46,-0.65c0.48,-0.13 1.88,-0.52 2.75,-0.86c0.85,-0.32 1.24,-0.52 2.02,-0.86c1.09,-0.49 2.1,-0.9 2.72,-1.13c0.85,-0.32 1.85,-0.74 2.52,-1c1.01,-0.39 1.95,-0.17 2.78,-0.74c0.66,-0.46 1.24,-0.61 1.19,0.22l-0.89,0.01l-0.57,0.5l-0.87,0.46" fill="none" id="svg_8" stroke="#000000" stroke-width="5"/>
 </g>
</svg>